<svg width="41" height="44" viewBox="0 0 41 44" fill="none" xmlns="http://www.w3.org/2000/svg">
<path d="M12.2705 31.0435C12.2705 31.6675 12.3455 32.2459 12.5142 32.7292C12.7429 33.3684 13.1367 33.8287 13.7292 33.9619C13.8492 33.9847 13.973 33.9999 14.1042 33.9999H26.918C26.9518 33.9999 26.9818 33.9999 27.008 33.9961C28.2305 33.9162 28.7292 32.6264 28.7292 31.0435L29.243 18.4189H11.7567L12.2705 31.0435ZM23.9893 21.2345H26.423V31.1843H23.9893V21.2345ZM19.2829 21.2345H21.7168V31.1843H19.2829V21.2345ZM14.5767 21.2345H17.0143V31.1843H14.5767V21.2345Z" fill="#F65A5A"/>
<path d="M25.705 14.1855C25.7086 14.0904 25.7162 13.9952 25.7162 13.9V13.6376C25.7162 11.6324 24.1075 10 22.1312 10H18.8649C16.8886 10 15.2799 11.6324 15.2799 13.6376V13.9C15.2799 13.9952 15.2874 14.0904 15.2949 14.1855H10V17.119H31V14.1855H25.705ZM23.4662 13.9C23.4662 13.999 23.455 14.0941 23.4363 14.1855H17.56C17.5412 14.0941 17.5299 13.999 17.5299 13.9V13.6376C17.5299 12.8918 18.1299 12.283 18.8649 12.283H22.1312C22.8699 12.283 23.4662 12.8918 23.4662 13.6376V13.9Z" fill="#F65A5A"/>
</svg>