<svg width="24" height="25" viewBox="0 0 24 25" fill="none" xmlns="http://www.w3.org/2000/svg">
<path d="M12.0516 4.91962V4.92717H15.9522V10.1004H17.6427V3.26493V3.24407V3.23657H12.0516V4.91451V4.91962Z" fill="#333333"/>
<path d="M17.6427 14.9069V14.8994H15.9522V20.0727H12.0516V21.7505V21.7556V21.7633H17.6427V14.9278V14.9069Z" fill="#333333"/>
<path d="M23.8859 12.2692L19.9178 9.26482C19.8647 9.22366 19.8043 9.20679 19.7462 9.20679C19.5966 9.20679 19.4566 9.3251 19.4566 9.49666V10.7766C19.4566 10.9361 19.326 11.0664 19.1667 11.0664H17.6428H15.9522H15.0826C14.9233 11.0664 14.7953 11.1944 14.7953 11.3539V13.6458C14.7953 13.8053 14.9233 13.9333 15.0826 13.9333H15.9522H17.6428H19.1667C19.326 13.9333 19.4566 14.0637 19.4566 14.223V15.5031C19.4566 15.6746 19.5966 15.7929 19.7462 15.7929C19.8043 15.7929 19.8647 15.7761 19.9178 15.7349L23.8859 12.7305C24.038 12.6146 24.038 12.3851 23.8859 12.2692Z" fill="#333333"/>
<path d="M9.59306 1.03638C9.47953 1.03872 9.36122 1.05339 9.24277 1.0871L1.79681 3.2366L1.31377 3.37666L0.743953 3.54091C0.301969 3.66888 0 4.07228 0 4.53353V20.4664C0 20.9277 0.301969 21.3309 0.743953 21.459L1.31377 21.6233L1.79681 21.7634L9.24277 23.9128C9.36122 23.9465 9.47953 23.9635 9.59306 23.9635C10.262 23.9635 10.844 23.4201 10.844 22.7076V21.7634V20.0728V4.92719V3.2366V2.2923C10.844 1.57985 10.262 1.03638 9.59306 1.03638ZM7.47727 13.5011V11.5012C7.47727 11.3685 7.58367 11.2646 7.71403 11.2646H8.499C8.62941 11.2646 8.73319 11.3685 8.73319 11.5012V13.5011C8.73319 13.6315 8.62941 13.7353 8.499 13.7353H7.71403C7.58367 13.7353 7.47727 13.6315 7.47727 13.5011Z" fill="#333333"/>
</svg>
