<svg width="24" height="25" viewBox="0 0 24 25" fill="none" xmlns="http://www.w3.org/2000/svg">
<g clip-path="url(#clip0_86_205)">
<path d="M22.9406 15.8807L21.2665 14.7729C20.9768 14.5812 20.8267 14.239 20.8807 13.8958C20.9523 13.441 20.9904 12.975 20.9904 12.5C20.9904 12.025 20.9523 11.559 20.8807 11.1042C20.8267 10.7612 20.977 10.4188 21.2665 10.2273L22.9406 9.11933C23.3326 8.86006 23.455 8.34055 23.2201 7.93353L21.5646 5.06642C21.3297 4.65941 20.8186 4.50556 20.3981 4.71542L18.6016 5.61139C18.2908 5.76645 17.919 5.7253 17.6489 5.50686C16.9265 4.92256 16.1119 4.44795 15.2302 4.1083C14.9067 3.98361 14.6858 3.68202 14.6648 3.33613L14.5427 1.3348C14.5139 0.865672 14.1252 0.5 13.6554 0.5H10.3446C9.87481 0.5 9.48602 0.865672 9.45729 1.3348L9.33513 3.33613C9.31404 3.68202 9.09326 3.98361 8.76973 4.1083C7.88806 4.44795 7.07341 4.92256 6.35107 5.50686C6.08098 5.7253 5.70912 5.76645 5.39834 5.61139L3.60195 4.71547C3.18134 4.50561 2.67031 4.65945 2.43542 5.06647L0.779931 7.93358C0.54504 8.34059 0.667337 8.86011 1.05935 9.11938L2.73349 10.2274C3.02318 10.4189 3.17327 10.7613 3.11927 11.1042C3.0477 11.559 3.00959 12.0251 3.00959 12.5C3.00959 12.975 3.0477 13.441 3.11927 13.8959C3.17327 14.239 3.02318 14.5813 2.73349 14.7729L1.05935 15.8807C0.667337 16.1402 0.54504 16.6595 0.779931 17.0665L2.43542 19.9338C2.67031 20.3406 3.18138 20.4945 3.60195 20.2848L5.39838 19.3888C5.70916 19.2337 6.08102 19.2749 6.35112 19.4934C7.07346 20.0777 7.8881 20.5525 8.76977 20.8919C9.09331 21.0166 9.31413 21.3182 9.33518 21.6641L9.45734 23.6652C9.48607 24.1342 9.87481 24.5 10.3447 24.5H13.6554C14.1252 24.5 14.514 24.1342 14.5428 23.6652L14.6649 21.6641C14.686 21.3182 14.9068 21.0166 15.2303 20.8919C16.112 20.5525 16.9266 20.0777 17.649 19.4934C17.9191 19.2749 18.2909 19.2337 18.6017 19.3888L20.3981 20.2848C20.8187 20.4945 21.3297 20.3406 21.5647 19.9338L23.2202 17.0665C23.455 16.6594 23.3326 16.1401 22.9406 15.8807ZM15.0199 12.5C15.0199 14.1679 13.6678 15.52 12.0001 15.52C10.3322 15.52 8.9801 14.168 8.9801 12.5C8.9801 10.8323 10.3322 9.48003 12.0001 9.48003C13.6678 9.48003 15.0199 10.8323 15.0199 12.5Z" fill="#333333"/>
</g>
<defs>
<clipPath id="clip0_86_205">
<rect width="24" height="24" fill="white" transform="translate(0 0.5)"/>
</clipPath>
</defs>
</svg>
