<svg width="20" height="20" viewBox="0 0 20 20" fill="none" xmlns="http://www.w3.org/2000/svg">
<g clip-path="url(#clip0_8_1505)">
<path d="M6.46985 18.0129C6.46985 18.0129 6.50215 17.9805 6.54165 17.941L14.1488 10.3339C14.1883 10.2944 14.2238 10.2589 14.2276 10.2551C14.2315 10.2512 14.267 10.2157 14.3065 10.1762L18.337 6.14566C18.3377 6.14495 18.3377 6.14378 18.337 6.14304L13.8382 1.64433C13.8375 1.64362 13.8364 1.64362 13.8356 1.64433L9.80508 5.67487C9.76559 5.71437 9.73008 5.74987 9.72622 5.75374C9.72235 5.75761 9.68684 5.79312 9.64735 5.83261L1.96879 13.5112C1.96856 13.5114 1.9684 13.5117 1.96832 13.512L8.21478e-05 19.979C-0.00034754 19.9804 0.000980586 19.9817 0.00238684 19.9813L6.37266 18.0425C6.4261 18.0262 6.46985 18.0129 6.46985 18.0129ZM1.43493 18.5441L2.4177 15.315C2.41809 15.3137 2.41977 15.3132 2.42075 15.3142L4.66711 17.5606C4.66809 17.5616 4.66766 17.5632 4.66633 17.5636L1.43719 18.5464C1.43579 18.5469 1.43446 18.5456 1.43493 18.5441Z" fill="url(#paint0_linear_8_1505)"/>
<path d="M19.625 4.07943C20.1251 3.57928 20.1251 2.76092 19.625 2.26076L17.7581 0.393887C17.258 -0.10623 16.4396 -0.10623 15.9395 0.393887L15.0074 1.326C15.0067 1.3267 15.0067 1.32787 15.0074 1.32861L18.6903 5.0115C18.691 5.01221 18.6921 5.01221 18.6929 5.0115L19.625 4.07943Z" fill="url(#paint1_linear_8_1505)"/>
</g>
<defs>
<linearGradient id="paint0_linear_8_1505" x1="-1.36625e-07" y1="10.8126" x2="18.3376" y2="10.8126" gradientUnits="userSpaceOnUse">
<stop stop-color="#A3A6E1"/>
<stop offset="1" stop-color="#FFABD9"/>
</linearGradient>
<linearGradient id="paint1_linear_8_1505" x1="15.0068" y1="2.51542" x2="20.0001" y2="2.51542" gradientUnits="userSpaceOnUse">
<stop stop-color="#A3A6E1"/>
<stop offset="1" stop-color="#FFABD9"/>
</linearGradient>
<clipPath id="clip0_8_1505">
<rect width="20" height="20" fill="white"/>
</clipPath>
</defs>
</svg>
